<?xml version="1.0" encoding="UTF-8" standalone="no"?>
<!-- Created with Inkscape (http://www.inkscape.org/) -->
<svg
   xmlns:svg="http://www.w3.org/2000/svg"
   xmlns="http://www.w3.org/2000/svg"
   version="1.0"
   width="562"
   height="69"
   viewBox="-0.134 -0.906 562 69"
   id="svg2"
   xml:space="preserve">
	<defs
   id="defs4">
	</defs>
	<g
   id="g6">
		<path
   d="M 0.197,0 C 22.11,0 44.024,0 65.938,0 C 76.471,0.581 83.443,5.138 84.354,16.7 C 84.703,25.399 81.9,31.374 74.23,33.376 C 83.23,34.634 87.331,40.403 86.979,49.968 C 86.718,59.634 82.903,66.948 69.267,67.772 L 0,67.772 L 0.197,0 L 0.197,0 z M 21.134,16.481 C 33.373,16.45 45.613,16.419 57.857,16.385 C 64.375,15.602 65.669,26.509 57.956,26.799 L 21.136,26.7 L 21.134,16.481 L 21.134,16.481 z M 21.043,40.458 C 33.951,40.458 46.862,40.458 59.773,40.458 C 66.251,40.151 66.696,50.808 59.877,51.081 L 20.936,51.587 L 21.043,40.458 L 21.043,40.458 z M 93.253,0 L 114.289,0 L 114.393,67.771 L 93.155,67.771 L 93.253,0 L 93.253,0 z M 122.69,16.283 L 122.786,0 L 200.876,0 L 201.079,15.976 L 152.433,50.976 L 202.282,50.98 L 202.4,67.772 L 121.579,67.266 L 121.377,51.29 L 170.129,16.177 L 122.69,16.283 L 122.69,16.283 z M 209.778,0 L 283.717,0 L 283.809,15.37 L 230.921,15.575 L 231.011,26.294 L 280.78,25.993 L 280.883,39.952 L 230.72,39.952 L 230.918,50.774 L 285.129,50.883 L 284.924,67.771 L 209.578,67.771 L 209.778,0 L 209.778,0 z M 291.001,67.771 L 291.206,0 C 313.358,0 335.507,0 357.658,0 C 367.43,0.708 372.123,6.029 373.343,14.503 C 373.374,19.444 373.406,24.391 373.439,29.333 C 372.668,35.287 368.962,39.095 362.314,40.756 C 369.195,41.323 372.869,45.237 373.334,52.497 L 373.234,67.771 L 352.197,67.771 C 352.197,63.891 352.197,60.016 352.197,56.136 C 352.207,51.969 350.082,49.68 345.819,49.262 L 311.926,49.259 L 311.937,67.771 L 291.001,67.771 L 291.001,67.771 z M 311.745,16.488 C 323.779,16.454 335.81,16.42 347.845,16.385 C 355.296,17.349 356.439,31.223 348.454,32.573 L 311.847,32.669 L 311.745,16.488 L 311.745,16.488 z M 383.751,0 C 405.77,0 427.792,0 449.807,0 C 460.526,0.103 467.687,4.532 468.517,16.69 C 468.278,25.44 465.325,31.251 458.407,32.771 C 467.428,34.784 471.505,40.417 470.636,49.663 C 471.2,61.772 464.019,67.44 450.415,67.771 L 383.765,67.771 L 383.751,0 L 383.751,0 z M 404.993,15.982 C 417.47,15.979 429.944,15.979 442.417,15.975 C 448.07,15.733 449.267,25.573 442.435,26.489 L 404.906,26.598 L 404.993,15.982 L 404.993,15.982 z M 405.198,40.151 C 418.044,40.154 430.887,40.157 443.736,40.161 C 451.96,41.259 450.394,50.64 443.952,51.081 L 405.089,51.081 L 405.198,40.151 L 405.198,40.151 z M 474.99,67.771 C 474.922,47.81 474.85,27.849 474.782,7.891 C 475.913,3 479.253,0.874 483.593,-0.001 C 506.652,-0.001 529.142,-0.001 552.198,-0.001 C 557.062,-0.015 560.596,2.583 561.454,8.191 L 561.061,67.77 L 539.729,67.77 L 539.815,53.199 L 495.727,53.103 L 495.727,67.77 L 474.99,67.77 L 474.99,67.771 z M 495.525,36.61 C 495.559,32.194 495.593,27.781 495.624,23.365 C 495.655,20.04 497.61,18.32 501.391,18.204 C 511.843,18.204 522.295,18.208 532.744,18.208 C 536.846,17.954 539.276,19.644 539.635,23.677 L 539.721,36.62 L 495.525,36.61 L 495.525,36.61 z "
   style="fill-rule:evenodd"
   id="path8" />
	</g>
</svg>
