<svg xmlns="http://www.w3.org/2000/svg" xmlns:xlink="http://www.w3.org/1999/xlink" viewBox="0 0 1527.24 415.72"><defs><style>.cls-1{isolation:isolate;}.cls-2{fill:url(#Neues_Verlaufsfeld_1);}.cls-3{fill:#1e6053;}.cls-4{fill:url(#Neues_Verlaufsfeld_1-2);}.cls-5{fill:#1d1d1b;mix-blend-mode:multiply;opacity:0.15;}.cls-6{fill:url(#Neues_Verlaufsfeld_1-3);}.cls-7{fill:url(#Neues_Verlaufsfeld_1-4);}.cls-8{fill:url(#Neues_Verlaufsfeld_1-5);}.cls-9{fill:url(#Neues_Verlaufsfeld_1-6);}.cls-10{fill:#1d6e93;}</style><linearGradient id="Neues_Verlaufsfeld_1" x1="114.92" y1="199.03" x2="285.47" y2="306.33" gradientUnits="userSpaceOnUse"><stop offset="0" stop-color="#0092bf"/><stop offset="1" stop-color="#749a58"/></linearGradient><linearGradient id="Neues_Verlaufsfeld_1-2" x1="113.16" y1="105.61" x2="278.05" y2="229.85" xlink:href="#Neues_Verlaufsfeld_1"/><linearGradient id="Neues_Verlaufsfeld_1-3" x1="13763.14" y1="-1750.59" x2="13555.15" y2="-1750.59" gradientTransform="translate(14359.47 -1584.4) rotate(180)" xlink:href="#Neues_Verlaufsfeld_1"/><linearGradient id="Neues_Verlaufsfeld_1-4" x1="13680.15" y1="-1757.71" x2="13623.41" y2="-1913.6" gradientTransform="translate(14359.47 -1584.4) rotate(180)" xlink:href="#Neues_Verlaufsfeld_1"/><linearGradient id="Neues_Verlaufsfeld_1-5" x1="442.05" y1="110.74" x2="543.7" y2="324.2" xlink:href="#Neues_Verlaufsfeld_1"/><linearGradient id="Neues_Verlaufsfeld_1-6" x1="6011.7" y1="-7365.27" x2="5828.08" y2="-7259.26" gradientTransform="translate(7725.84 6141.4) rotate(-90)" xlink:href="#Neues_Verlaufsfeld_1"/></defs><g class="cls-1"><g id="Ebene_1" data-name="Ebene 1"><path class="cls-2" d="M126.92,185.18h-.45a22.47,22.47,0,1,0,0,44.93H248.72a18.34,18.34,0,1,1,0,36.68H126.47a22.47,22.47,0,1,0,0,44.93H248.72a63.27,63.27,0,0,0,0-126.54Z"/><path class="cls-3" d="M296.71,207.24l-.74-.63a61.69,61.69,0,0,1-47.22,22v1.5a18.17,18.17,0,0,1,6.36,1.17A64.69,64.69,0,0,0,298,208.82C297.59,208.28,297.16,207.76,296.71,207.24Z"/><path class="cls-4" d="M126.47,103.57a22.47,22.47,0,1,0,0,44.93H248.72a18.34,18.34,0,0,1,0,36.68H126.47a22.47,22.47,0,1,0,0,44.93H248.72a63.27,63.27,0,0,0,0-126.54Z"/><path class="cls-5" d="M148.93,126a22.47,22.47,0,1,0-22.46,22.47A22.49,22.49,0,0,0,148.93,126"/><path class="cls-5" d="M148.93,207.64a22.47,22.47,0,1,0-22.46,22.47,22.49,22.49,0,0,0,22.46-22.47"/><path class="cls-5" d="M148.93,289.25a22.47,22.47,0,1,0-22.46,22.47,22.48,22.48,0,0,0,22.46-22.47"/><path class="cls-6" d="M781.39,229.46h.46a22.47,22.47,0,1,0,0-44.93H659.59a18.34,18.34,0,0,1,0-36.68H781.85a22.47,22.47,0,1,0,0-44.93H659.59a63.27,63.27,0,0,0,0,126.54Z"/><path class="cls-3" d="M653.21,183.36a64.69,64.69,0,0,0-42.91,22.46c.42.54.86,1.06,1.31,1.58l.74.63a61.67,61.67,0,0,1,47.22-22v-1.5A18.17,18.17,0,0,1,653.21,183.36Z"/><path class="cls-7" d="M781.85,311.09a22.47,22.47,0,1,0,0-44.93H659.59a18.34,18.34,0,0,1,0-36.68H781.85a22.47,22.47,0,1,0,0-44.93H659.59a63.27,63.27,0,0,0,0,126.54Z"/><path class="cls-5" d="M759.39,125.39a22.47,22.47,0,1,0,22.46-22.47,22.48,22.48,0,0,0-22.46,22.47"/><path class="cls-5" d="M759.39,288.62a22.47,22.47,0,1,0,22.46-22.46,22.49,22.49,0,0,0-22.46,22.46"/><path class="cls-5" d="M759.39,207a22.47,22.47,0,1,0,22.46-22.47A22.49,22.49,0,0,0,759.39,207"/><path class="cls-8" d="M432.37,288.54V289a22.47,22.47,0,1,0,44.93,0V166.74a18.34,18.34,0,0,1,36.68,0V289a22.47,22.47,0,1,0,44.93,0V166.74a63.27,63.27,0,0,0-126.54,0Z"/><path class="cls-3" d="M453.8,119.54a61.69,61.69,0,0,1,22,47.22h1.5a18.17,18.17,0,0,1,1.17-6.36A64.71,64.71,0,0,0,456,117.49c-.54.43-1.06.86-1.58,1.31Z"/><path class="cls-9" d="M350.78,288.92a22.47,22.47,0,0,0,44.93,0V166.66a18.34,18.34,0,1,1,36.67,0V288.92a22.47,22.47,0,0,0,44.93,0V166.66a63.27,63.27,0,0,0-126.53,0Z"/><path class="cls-5" d="M373.24,266.45a22.47,22.47,0,1,0,22.47,22.47,22.49,22.49,0,0,0-22.47-22.47"/><path class="cls-5" d="M454.83,266.54A22.47,22.47,0,1,0,477.3,289a22.49,22.49,0,0,0-22.47-22.46"/><path class="cls-5" d="M536.44,266.79a22.47,22.47,0,1,0,22.47,22.46,22.48,22.48,0,0,0-22.47-22.46"/><path class="cls-10" d="M850.58,148.5a1.32,1.32,0,0,1-1.41-1.41V105.17a1.5,1.5,0,0,1,.38-1.09,1.42,1.42,0,0,1,1-.38h16.7a14.82,14.82,0,0,1,7.33,1.6,10.12,10.12,0,0,1,4.19,4.19,12.09,12.09,0,0,1,1.35,5.66,11.52,11.52,0,0,1-.87,4.71,9.46,9.46,0,0,1-2.17,3.17,11.11,11.11,0,0,1-2.6,1.85,12.52,12.52,0,0,1,4.55,4.1,11.61,11.61,0,0,1,2,6.85,13.17,13.17,0,0,1-1.5,6.11,12,12,0,0,1-4.48,4.73,13.77,13.77,0,0,1-7.33,1.83Zm2.62-25.35h13.25q4.74,0,7.2-2.11a7.35,7.35,0,0,0,2.46-5.89,6.78,6.78,0,0,0-2.46-5.69q-2.46-1.92-7.2-1.92H853.2Zm0,21.51h13.89q4.74,0,7.33-2.5a9.08,9.08,0,0,0,0-12.7c-1.73-1.64-4.17-2.47-7.33-2.47H853.2Z"/><path class="cls-10" d="M902.61,149.14a12.77,12.77,0,0,1-7.2-1.89,11.26,11.26,0,0,1-4.22-5.15,18.59,18.59,0,0,1-1.38-7.3V116.63a1.31,1.31,0,0,1,1.41-1.41h1.09a1.41,1.41,0,0,1,1,.38,1.38,1.38,0,0,1,.38,1v17.85q0,11,9.54,11a9.56,9.56,0,0,0,7.3-2.92c1.83-1.94,2.75-4.61,2.75-8V116.63a1.31,1.31,0,0,1,1.41-1.41h1.08a1.31,1.31,0,0,1,1.41,1.41v30.46a1.32,1.32,0,0,1-1.41,1.41h-1.08a1.32,1.32,0,0,1-1.41-1.41v-3a14.25,14.25,0,0,1-4.13,3.65A13,13,0,0,1,902.61,149.14Z"/><path class="cls-10" d="M929,148.5a1.32,1.32,0,0,1-1.41-1.41V116.63a1.31,1.31,0,0,1,1.41-1.41h1.09a1.31,1.31,0,0,1,1.4,1.41v3a14.2,14.2,0,0,1,4.19-3.64,15.4,15.4,0,0,1,13.83.48,11.57,11.57,0,0,1,4.35,5.12,17.78,17.78,0,0,1,1.44,7.32v18.18a1.32,1.32,0,0,1-1.41,1.41h-1.09a1.32,1.32,0,0,1-1.4-1.41V129.23c0-3.41-.83-6.08-2.5-8s-4.1-2.91-7.29-2.91a9.66,9.66,0,0,0-7.33,2.91c-1.86,2-2.79,4.62-2.79,8v17.86a1.32,1.32,0,0,1-1.4,1.41Z"/><path class="cls-10" d="M977.36,149.14a13.48,13.48,0,0,1-6.3-1.35,11.52,11.52,0,0,1-4.19-3.58,15.25,15.25,0,0,1-2.34-5,26.47,26.47,0,0,1-.87-5.57c0-.64-.06-1.24-.06-1.79s0-1.15.06-1.79a26.37,26.37,0,0,1,.87-5.57,15.15,15.15,0,0,1,2.34-5,11.55,11.55,0,0,1,4.19-3.59,13.61,13.61,0,0,1,6.3-1.34,13.16,13.16,0,0,1,6.56,1.47,13.55,13.55,0,0,1,4.19,3.58V104.47a1.32,1.32,0,0,1,1.41-1.41h1.09a1.32,1.32,0,0,1,1.41,1.41v42.62a1.35,1.35,0,0,1-.39,1,1.36,1.36,0,0,1-1,.39h-1.09a1.34,1.34,0,0,1-1.41-1.41v-3a12.78,12.78,0,0,1-4.19,3.62A13.38,13.38,0,0,1,977.36,149.14Zm.38-3.71a9.37,9.37,0,0,0,5.89-1.73,10.47,10.47,0,0,0,3.33-4.32,14.17,14.17,0,0,0,1.15-5.22c0-.64.07-1.47.07-2.49s0-1.86-.07-2.5a13.15,13.15,0,0,0-1.18-5.06,10.52,10.52,0,0,0-3.36-4.16,11.23,11.23,0,0,0-11.75,0,9.18,9.18,0,0,0-3.16,4.36,19.24,19.24,0,0,0-1.09,5.76c0,1.19,0,2.39,0,3.58a19.24,19.24,0,0,0,1.09,5.76,9.2,9.2,0,0,0,3.16,4.35A9.63,9.63,0,0,0,977.74,145.43Z"/><path class="cls-10" d="M1014.8,149.14a12.6,12.6,0,0,1-9.86-4.07,17.45,17.45,0,0,1-4.16-10.65c0-.64-.06-1.49-.06-2.56s0-1.92.06-2.56a19.78,19.78,0,0,1,2.05-7.68,12.88,12.88,0,0,1,4.77-5.19,13.63,13.63,0,0,1,7.2-1.85,14,14,0,0,1,7.62,2,12.88,12.88,0,0,1,4.83,5.7,21.11,21.11,0,0,1,1.69,8.83v1a1.33,1.33,0,0,1-.41,1,1.49,1.49,0,0,1-1.06.39h-22.78v.64a14.16,14.16,0,0,0,1.34,5.47,10.67,10.67,0,0,0,3.46,4.22,8.75,8.75,0,0,0,5.31,1.64,11,11,0,0,0,4.58-.84,11.29,11.29,0,0,0,2.91-1.82,9.33,9.33,0,0,0,1.41-1.5,3.29,3.29,0,0,1,.89-1,2.56,2.56,0,0,1,1-.16h1a1.47,1.47,0,0,1,1,.36,1,1,0,0,1,.35.93,4.66,4.66,0,0,1-1,2.2,11.92,11.92,0,0,1-2.62,2.59,14.7,14.7,0,0,1-4.13,2.12A16.88,16.88,0,0,1,1014.8,149.14Zm-10.11-19.27H1025v-.25a13.29,13.29,0,0,0-1.22-5.76,9.74,9.74,0,0,0-3.52-4.07,9.84,9.84,0,0,0-5.5-1.5,9.34,9.34,0,0,0-8.93,5.57,13.57,13.57,0,0,0-1.18,5.76Z"/><path class="cls-10" d="M1048,149.14a16.33,16.33,0,0,1-5.73-.9,13.71,13.71,0,0,1-3.93-2.14,9.61,9.61,0,0,1-2.27-2.47,4.85,4.85,0,0,1-.8-1.85,1.06,1.06,0,0,1,.44-1.06,1.75,1.75,0,0,1,1-.35h1a1.62,1.62,0,0,1,.68.13,2.35,2.35,0,0,1,.73.7,16.21,16.21,0,0,0,1.92,2.08,7.74,7.74,0,0,0,2.79,1.57,13.45,13.45,0,0,0,4.25.58,12.27,12.27,0,0,0,6.34-1.48,4.75,4.75,0,0,0,2.49-4.35,4.13,4.13,0,0,0-1-2.88,8.34,8.34,0,0,0-3.36-1.92,59.83,59.83,0,0,0-6.4-1.73,20.83,20.83,0,0,1-6.17-2.3,7.25,7.25,0,0,1-2.92-3.1,9.5,9.5,0,0,1-.76-3.81,8.42,8.42,0,0,1,1.28-4.39,9.77,9.77,0,0,1,3.8-3.52,13.32,13.32,0,0,1,6.37-1.37,15.38,15.38,0,0,1,5.35.83,12.45,12.45,0,0,1,3.61,2,9.24,9.24,0,0,1,2.08,2.33,5,5,0,0,1,.74,1.86,1.11,1.11,0,0,1-.39,1,1.52,1.52,0,0,1-1,.39h-1a1.41,1.41,0,0,1-.83-.23,2.13,2.13,0,0,1-.58-.61,11.51,11.51,0,0,0-1.53-1.92,6.67,6.67,0,0,0-2.4-1.44,12.43,12.43,0,0,0-4.07-.54q-3.84,0-5.69,1.57a5,5,0,0,0-1.86,4,4.07,4.07,0,0,0,.77,2.46,6.47,6.47,0,0,0,2.88,1.92,43.53,43.53,0,0,0,6.14,1.83,24.33,24.33,0,0,1,6.47,2.2,8.37,8.37,0,0,1,3.36,3.11,8.58,8.58,0,0,1,1,4.22,8.41,8.41,0,0,1-1.44,4.74,10,10,0,0,1-4.29,3.49A16.8,16.8,0,0,1,1048,149.14Z"/><path class="cls-10" d="M1079.25,148.5a2.39,2.39,0,0,1-1.57-.45,3.27,3.27,0,0,1-.87-1.15L1065,117.2a2.09,2.09,0,0,1-.13-.7,1.3,1.3,0,0,1,1.28-1.28h1.34a1.38,1.38,0,0,1,1,.35,1.5,1.5,0,0,1,.41.61l10.82,27.65,10.81-27.65a3.44,3.44,0,0,1,.45-.61,1.27,1.27,0,0,1,1-.35h1.35a1.32,1.32,0,0,1,1.28,1.28,2.37,2.37,0,0,1-.13.7l-11.78,29.7a2.34,2.34,0,0,1-2.43,1.6Z"/><path class="cls-10" d="M1113.3,149.14a12.59,12.59,0,0,1-9.86-4.07,17.45,17.45,0,0,1-4.16-10.65c0-.64-.06-1.49-.06-2.56s0-1.92.06-2.56a19.61,19.61,0,0,1,2-7.68,12.92,12.92,0,0,1,4.76-5.19,13.64,13.64,0,0,1,7.21-1.85,14,14,0,0,1,7.61,2,12.88,12.88,0,0,1,4.83,5.7,21.11,21.11,0,0,1,1.7,8.83v1a1.3,1.3,0,0,1-.42,1,1.48,1.48,0,0,1-1,.39h-22.79v.64a14.35,14.35,0,0,0,1.35,5.47,10.73,10.73,0,0,0,3.45,4.22,8.8,8.8,0,0,0,5.32,1.64,10.78,10.78,0,0,0,7.48-2.66,8.47,8.47,0,0,0,1.41-1.5,3.15,3.15,0,0,1,.9-1,2.5,2.5,0,0,1,1-.16h1a1.47,1.47,0,0,1,1,.36,1,1,0,0,1,.35.93,4.66,4.66,0,0,1-1,2.2,12,12,0,0,1-2.63,2.59,14.63,14.63,0,0,1-4.12,2.12A16.92,16.92,0,0,1,1113.3,149.14Zm-10.12-19.27h20.35v-.25a13.29,13.29,0,0,0-1.21-5.76,9.74,9.74,0,0,0-3.52-4.07,9.87,9.87,0,0,0-5.5-1.5,9.31,9.31,0,0,0-8.93,5.57,13.58,13.58,0,0,0-1.19,5.76Z"/><path class="cls-10" d="M1137.29,148.5a1.38,1.38,0,0,1-1-.39,1.34,1.34,0,0,1-.38-1v-30.4a1.48,1.48,0,0,1,.38-1.06,1.36,1.36,0,0,1,1-.41h1a1.42,1.42,0,0,1,1.47,1.47v2.94a7.38,7.38,0,0,1,3.33-3.32,11.87,11.87,0,0,1,5.37-1.09h2.37a1.31,1.31,0,0,1,1.41,1.41v.89a1.31,1.31,0,0,1-1.41,1.41h-2.75a7.73,7.73,0,0,0-8.32,8.32v19.84a1.3,1.3,0,0,1-.42,1,1.47,1.47,0,0,1-1,.39Z"/><path class="cls-10" d="M1172.88,149.14a13.38,13.38,0,0,1-6.56-1.44,12.78,12.78,0,0,1-4.19-3.62v3a1.35,1.35,0,0,1-.39,1,1.36,1.36,0,0,1-1,.39h-1.09a1.34,1.34,0,0,1-1.41-1.41V104.47a1.32,1.32,0,0,1,1.41-1.41h1.09a1.32,1.32,0,0,1,1.41,1.41v15.16a13.55,13.55,0,0,1,4.19-3.58,13.16,13.16,0,0,1,6.56-1.47,13.57,13.57,0,0,1,6.33,1.34,11.61,11.61,0,0,1,4.16,3.59,15.63,15.63,0,0,1,2.37,5,22.47,22.47,0,0,1,.83,5.57c0,.64.07,1.23.07,1.79s0,1.15-.07,1.79a22.54,22.54,0,0,1-.83,5.57,15.73,15.73,0,0,1-2.37,5,11.59,11.59,0,0,1-4.16,3.58A13.44,13.44,0,0,1,1172.88,149.14Zm-.39-3.71a9.61,9.61,0,0,0,6-1.67,9.27,9.27,0,0,0,3.13-4.35,19.56,19.56,0,0,0,1.09-5.76c0-1.19,0-2.39,0-3.58a19.56,19.56,0,0,0-1.09-5.76,9.25,9.25,0,0,0-3.13-4.36,11.22,11.22,0,0,0-11.75,0,10.42,10.42,0,0,0-3.39,4.16,13,13,0,0,0-1.18,5.06c-.05.64-.07,1.47-.07,2.5s0,1.85.07,2.49a15.78,15.78,0,0,0,1.18,5.22,10.16,10.16,0,0,0,3.3,4.32A9.36,9.36,0,0,0,1172.49,145.43Z"/><path class="cls-10" d="M1204.24,149.14a12.68,12.68,0,0,1-5.67-1.28,11.43,11.43,0,0,1-4.19-3.43,7.81,7.81,0,0,1-1.6-4.83,8.26,8.26,0,0,1,3.52-7,19.58,19.58,0,0,1,9.15-3.4l10.12-1.4v-2.24a7,7,0,0,0-2.08-5.35q-2.09-2-6.63-1.95a9.84,9.84,0,0,0-5.37,1.31,6.75,6.75,0,0,0-2.82,3.43,1.23,1.23,0,0,1-1.22,1h-1a1.29,1.29,0,0,1-1.09-.42,1.61,1.61,0,0,1-.32-1,5.21,5.21,0,0,1,.67-2.24,9.58,9.58,0,0,1,2.08-2.66,11.82,11.82,0,0,1,3.65-2.21,14.82,14.82,0,0,1,5.44-.89,16.41,16.41,0,0,1,6.24,1,10,10,0,0,1,3.84,2.66,9.71,9.71,0,0,1,2,3.61,13.83,13.83,0,0,1,.58,3.91v21.31a1.32,1.32,0,0,1-1.41,1.41H1217a1.36,1.36,0,0,1-1-.39,1.34,1.34,0,0,1-.38-1v-3a11,11,0,0,1-2.18,2.31,12.45,12.45,0,0,1-3.62,2A16.5,16.5,0,0,1,1204.24,149.14Zm.64-3.71a11.38,11.38,0,0,0,5.37-1.28,9.45,9.45,0,0,0,3.88-3.94,13.92,13.92,0,0,0,1.44-6.69v-2.17l-8.26,1.15a19.86,19.86,0,0,0-7.94,2.43,5.07,5.07,0,0,0-2.69,4.35,5,5,0,0,0,1.22,3.46,7.46,7.46,0,0,0,3.11,2A11.35,11.35,0,0,0,1204.88,145.43Z"/><path class="cls-10" d="M1231,148.5a1.32,1.32,0,0,1-1.41-1.41V116.63a1.31,1.31,0,0,1,1.41-1.41h1.09a1.41,1.41,0,0,1,1,.38,1.38,1.38,0,0,1,.38,1v3a14.12,14.12,0,0,1,4.2-3.64,15.38,15.38,0,0,1,13.82.48,11.57,11.57,0,0,1,4.35,5.12,17.78,17.78,0,0,1,1.44,7.32v18.18a1.32,1.32,0,0,1-1.41,1.41h-1.08a1.32,1.32,0,0,1-1.41-1.41V129.23c0-3.41-.83-6.08-2.5-8s-4.09-2.91-7.29-2.91a9.67,9.67,0,0,0-7.33,2.91c-1.86,2-2.79,4.62-2.79,8v17.86a1.34,1.34,0,0,1-.38,1,1.38,1.38,0,0,1-1,.39Z"/><path class="cls-10" d="M1279.37,149.14a13.51,13.51,0,0,1-6.3-1.35,11.52,11.52,0,0,1-4.19-3.58,15.25,15.25,0,0,1-2.34-5,25.82,25.82,0,0,1-.86-5.57c0-.64-.07-1.24-.07-1.79s0-1.15.07-1.79a25.73,25.73,0,0,1,.86-5.57,15.15,15.15,0,0,1,2.34-5,11.55,11.55,0,0,1,4.19-3.59,13.64,13.64,0,0,1,6.3-1.34,13.16,13.16,0,0,1,6.56,1.47,13.55,13.55,0,0,1,4.19,3.58V104.47a1.32,1.32,0,0,1,1.41-1.41h1.09a1.32,1.32,0,0,1,1.41,1.41v42.62a1.34,1.34,0,0,1-1.41,1.41h-1.09a1.36,1.36,0,0,1-1-.39,1.35,1.35,0,0,1-.39-1v-3a12.78,12.78,0,0,1-4.19,3.62A13.38,13.38,0,0,1,1279.37,149.14Zm.39-3.71a9.36,9.36,0,0,0,5.88-1.73,10.39,10.39,0,0,0,3.33-4.32,14.17,14.17,0,0,0,1.15-5.22c.05-.64.07-1.47.07-2.49s0-1.86-.07-2.5a13,13,0,0,0-1.18-5.06,10.52,10.52,0,0,0-3.36-4.16,11.21,11.21,0,0,0-11.74,0,9.13,9.13,0,0,0-3.17,4.36,19.56,19.56,0,0,0-1.09,5.76c0,1.19,0,2.39,0,3.58a19.56,19.56,0,0,0,1.09,5.76,9.15,9.15,0,0,0,3.17,4.35A9.59,9.59,0,0,0,1279.76,145.43Z"/><path class="cls-10" d="M850.64,230a1.45,1.45,0,0,1-1-.39,1.3,1.3,0,0,1-.42-1V186.67a1.41,1.41,0,0,1,.42-1.09,1.49,1.49,0,0,1,1-.38h1.6a1.31,1.31,0,0,1,1,.32,1.7,1.7,0,0,1,.39.51l14.52,28.29L882.71,186a3.92,3.92,0,0,1,.41-.51,1.2,1.2,0,0,1,.93-.32h1.54a1.34,1.34,0,0,1,1.47,1.47v41.92a1.35,1.35,0,0,1-.39,1,1.44,1.44,0,0,1-1.08.39h-1.16a1.38,1.38,0,0,1-1-.39,1.34,1.34,0,0,1-.38-1V193.9L870.8,218a2.06,2.06,0,0,1-.73,1,2.25,2.25,0,0,1-1.25.32h-1.41a2.1,2.1,0,0,1-1.22-.32,2.59,2.59,0,0,1-.76-1L853.2,193.9v34.69a1.32,1.32,0,0,1-1.41,1.41Z"/><path class="cls-10" d="M907.22,230.64a12.68,12.68,0,0,1-5.67-1.28,11.52,11.52,0,0,1-4.19-3.43,7.81,7.81,0,0,1-1.6-4.83,8.26,8.26,0,0,1,3.52-7,19.58,19.58,0,0,1,9.15-3.4l10.12-1.4v-2.24a7,7,0,0,0-2.08-5.35q-2.09-2-6.63-2a9.84,9.84,0,0,0-5.37,1.31,6.75,6.75,0,0,0-2.82,3.43,1.22,1.22,0,0,1-1.22,1h-1a1.29,1.29,0,0,1-1.09-.42,1.61,1.61,0,0,1-.32-1,5.36,5.36,0,0,1,.67-2.24,9.58,9.58,0,0,1,2.08-2.66A11.82,11.82,0,0,1,904.4,197a14.82,14.82,0,0,1,5.44-.89,16.41,16.41,0,0,1,6.24,1,10,10,0,0,1,3.84,2.66,9.71,9.71,0,0,1,2,3.61,13.83,13.83,0,0,1,.58,3.91v21.31A1.32,1.32,0,0,1,921,230H920a1.38,1.38,0,0,1-1-.39,1.34,1.34,0,0,1-.38-1v-3a11,11,0,0,1-2.18,2.31,12.32,12.32,0,0,1-3.62,2A16.46,16.46,0,0,1,907.22,230.64Zm.64-3.71a11.38,11.38,0,0,0,5.37-1.28,9.4,9.4,0,0,0,3.88-3.94,13.92,13.92,0,0,0,1.44-6.69v-2.17L910.29,214a19.91,19.91,0,0,0-7.94,2.43,5.06,5.06,0,0,0-2.68,4.35,5,5,0,0,0,1.21,3.46,7.46,7.46,0,0,0,3.11,2A11.35,11.35,0,0,0,907.86,226.93Z"/><path class="cls-10" d="M943.44,230a8.7,8.7,0,0,1-5.25-1.41,7.35,7.35,0,0,1-2.68-3.84,17.74,17.74,0,0,1-.77-5.44V200.43h-5a1.31,1.31,0,0,1-1.41-1.41v-.89a1.31,1.31,0,0,1,1.41-1.41h5V186a1.31,1.31,0,0,1,1.41-1.41h1.08a1.31,1.31,0,0,1,1.41,1.41v10.75h7.94a1.32,1.32,0,0,1,1.41,1.41V199a1.32,1.32,0,0,1-1.41,1.41h-7.94v18.62a10.55,10.55,0,0,0,1.12,5.32,4.24,4.24,0,0,0,4,1.92h3.46a1.36,1.36,0,0,1,1,.38,1.38,1.38,0,0,1,.39,1v.9a1.35,1.35,0,0,1-.39,1,1.36,1.36,0,0,1-1,.39Z"/><path class="cls-10" d="M967.57,230.64a12.6,12.6,0,0,1-9.86-4.07,17.45,17.45,0,0,1-4.16-10.65c0-.64-.06-1.49-.06-2.56s0-1.92.06-2.56a19.78,19.78,0,0,1,2.05-7.68,12.88,12.88,0,0,1,4.77-5.19,13.63,13.63,0,0,1,7.2-1.85,14,14,0,0,1,7.62,2,12.88,12.88,0,0,1,4.83,5.7,21.11,21.11,0,0,1,1.69,8.83v1a1.33,1.33,0,0,1-.41,1,1.49,1.49,0,0,1-1.06.39H957.46v.64a14.16,14.16,0,0,0,1.34,5.47,10.67,10.67,0,0,0,3.46,4.22,8.75,8.75,0,0,0,5.31,1.64,11,11,0,0,0,4.58-.84,11.29,11.29,0,0,0,2.91-1.82,9.33,9.33,0,0,0,1.41-1.5,3.29,3.29,0,0,1,.89-1,2.56,2.56,0,0,1,1-.16h1a1.47,1.47,0,0,1,1,.36,1,1,0,0,1,.35.93,4.66,4.66,0,0,1-1,2.2,11.92,11.92,0,0,1-2.62,2.59,14.7,14.7,0,0,1-4.13,2.12A16.88,16.88,0,0,1,967.57,230.64Zm-10.11-19.27h20.35v-.25a13.29,13.29,0,0,0-1.22-5.76,9.74,9.74,0,0,0-3.52-4.07,9.84,9.84,0,0,0-5.5-1.5,9.34,9.34,0,0,0-8.93,5.57,13.57,13.57,0,0,0-1.18,5.76Z"/><path class="cls-10" d="M991.57,230a1.32,1.32,0,0,1-1.41-1.41v-30.4a1.53,1.53,0,0,1,.38-1.06,1.36,1.36,0,0,1,1-.41h1a1.46,1.46,0,0,1,1.06.41,1.42,1.42,0,0,1,.41,1.06v2.94a7.38,7.38,0,0,1,3.33-3.32,11.91,11.91,0,0,1,5.38-1.09h2.37a1.4,1.4,0,0,1,1,.38,1.38,1.38,0,0,1,.38,1V199a1.38,1.38,0,0,1-.38,1,1.4,1.4,0,0,1-1,.38h-2.75a7.73,7.73,0,0,0-8.33,8.32v19.84a1.29,1.29,0,0,1-.41,1,1.49,1.49,0,0,1-1.06.39Z"/><path class="cls-10" d="M1013.14,189.87a1.31,1.31,0,0,1-1.41-1.41V186a1.53,1.53,0,0,1,.38-1.06,1.36,1.36,0,0,1,1-.41h2.43A1.42,1.42,0,0,1,1017,186v2.43a1.33,1.33,0,0,1-.42,1,1.5,1.5,0,0,1-1,.38Zm.7,40.13a1.34,1.34,0,0,1-1.41-1.41V198.13a1.32,1.32,0,0,1,1.41-1.41h1.09a1.32,1.32,0,0,1,1.41,1.41v30.46a1.35,1.35,0,0,1-.39,1,1.36,1.36,0,0,1-1,.39Z"/><path class="cls-10" d="M1035.66,230.64a12.67,12.67,0,0,1-5.66-1.28,11.35,11.35,0,0,1-4.19-3.43,7.81,7.81,0,0,1-1.6-4.83,8.26,8.26,0,0,1,3.52-7,19.5,19.5,0,0,1,9.15-3.4l10.11-1.4v-2.24a7,7,0,0,0-2.08-5.35c-1.39-1.3-3.59-2-6.62-2a9.9,9.9,0,0,0-5.38,1.31,6.78,6.78,0,0,0-2.81,3.43,1.23,1.23,0,0,1-1.22,1h-1a1.27,1.27,0,0,1-1.09-.42,1.55,1.55,0,0,1-.32-1,5.21,5.21,0,0,1,.67-2.24,9.58,9.58,0,0,1,2.08-2.66,11.71,11.71,0,0,1,3.65-2.21,14.79,14.79,0,0,1,5.44-.89,16.45,16.45,0,0,1,6.24,1,9.43,9.43,0,0,1,5.79,6.27,14.2,14.2,0,0,1,.58,3.91v21.31a1.35,1.35,0,0,1-.39,1,1.36,1.36,0,0,1-1,.39h-1.09a1.34,1.34,0,0,1-1.41-1.41v-3a11,11,0,0,1-2.17,2.31,12.45,12.45,0,0,1-3.62,2A16.52,16.52,0,0,1,1035.66,230.64Zm.64-3.71a11.39,11.39,0,0,0,5.38-1.28,9.37,9.37,0,0,0,3.87-3.94A13.92,13.92,0,0,0,1047,215v-2.17l-8.25,1.15a19.86,19.86,0,0,0-7.94,2.43,5.07,5.07,0,0,0-2.69,4.35,5,5,0,0,0,1.22,3.46,7.42,7.42,0,0,0,3.1,2A11.43,11.43,0,0,0,1036.3,226.93Z"/><path class="cls-10" d="M1062.48,230a1.34,1.34,0,0,1-1.41-1.41V186a1.32,1.32,0,0,1,1.41-1.41h1.09A1.32,1.32,0,0,1,1065,186v42.62a1.35,1.35,0,0,1-.39,1,1.36,1.36,0,0,1-1,.39Z"/><path class="cls-10" d="M1084.05,230a1.87,1.87,0,0,1-1.28-.39,2.91,2.91,0,0,1-.77-1.21l-9-29.7a2.34,2.34,0,0,1-.12-.7,1.23,1.23,0,0,1,.38-.9,1.25,1.25,0,0,1,.9-.38h1.21a1.34,1.34,0,0,1,1,.35,1.44,1.44,0,0,1,.42.61l7.87,26.62L1093,198a2.39,2.39,0,0,1,.51-.83,1.51,1.51,0,0,1,1.22-.45H1096a1.6,1.6,0,0,1,1.25.45,1.64,1.64,0,0,1,.48.83l8.39,26.3,7.87-26.62a1.5,1.5,0,0,1,.41-.61,1.38,1.38,0,0,1,1-.35h1.21a1.3,1.3,0,0,1,1.28,1.28,2.09,2.09,0,0,1-.13.7l-9,29.7a2.58,2.58,0,0,1-.7,1.21,2,2,0,0,1-1.35.39h-1.08a2.3,2.3,0,0,1-1.38-.39,2.21,2.21,0,0,1-.8-1.21l-8.07-25.22-8.06,25.22a2.29,2.29,0,0,1-.77,1.21,2.26,2.26,0,0,1-1.4.39Z"/><path class="cls-10" d="M1126.41,189.87a1.41,1.41,0,0,1-1-.38,1.38,1.38,0,0,1-.38-1V186a1.48,1.48,0,0,1,.38-1.06,1.36,1.36,0,0,1,1-.41h2.44a1.46,1.46,0,0,1,1.05.41,1.43,1.43,0,0,1,.42,1.06v2.43a1.33,1.33,0,0,1-.42,1,1.52,1.52,0,0,1-1.05.38Zm.71,40.13a1.32,1.32,0,0,1-1.41-1.41V198.13a1.31,1.31,0,0,1,1.41-1.41h1.09a1.41,1.41,0,0,1,1,.38,1.38,1.38,0,0,1,.38,1v30.46a1.34,1.34,0,0,1-.38,1,1.38,1.38,0,0,1-1,.39Z"/><path class="cls-10" d="M1141.39,230a1.34,1.34,0,0,1-1.41-1.41v-30.4a1.49,1.49,0,0,1,.39-1.06,1.33,1.33,0,0,1,1-.41h1a1.46,1.46,0,0,1,1.06.41,1.43,1.43,0,0,1,.42,1.06v2.94a7.31,7.31,0,0,1,3.32-3.32,11.91,11.91,0,0,1,5.38-1.09H1155a1.32,1.32,0,0,1,1.41,1.41V199a1.32,1.32,0,0,1-1.41,1.41h-2.75a7.73,7.73,0,0,0-8.32,8.32v19.84a1.3,1.3,0,0,1-.42,1,1.49,1.49,0,0,1-1.06.39Z"/><path class="cls-10" d="M1173.45,230a8.67,8.67,0,0,1-5.24-1.41,7.37,7.37,0,0,1-2.69-3.84,18.05,18.05,0,0,1-.77-5.44V200.43h-5a1.31,1.31,0,0,1-1.41-1.41v-.89a1.31,1.31,0,0,1,1.41-1.41h5V186a1.31,1.31,0,0,1,1.41-1.41h1.09a1.41,1.41,0,0,1,1,.38,1.38,1.38,0,0,1,.38,1v10.75h7.94a1.32,1.32,0,0,1,1.41,1.41V199a1.32,1.32,0,0,1-1.41,1.41h-7.94v18.62a10.66,10.66,0,0,0,1.12,5.32,4.24,4.24,0,0,0,4,1.92h3.46a1.34,1.34,0,0,1,1,.38,1.38,1.38,0,0,1,.39,1v.9a1.34,1.34,0,0,1-1.41,1.41Z"/><path class="cls-10" d="M1195.79,230.64a16.33,16.33,0,0,1-5.73-.9,13.71,13.71,0,0,1-3.93-2.14,9.66,9.66,0,0,1-2.28-2.47,5,5,0,0,1-.8-1.85,1.09,1.09,0,0,1,.45-1.06,1.75,1.75,0,0,1,1-.35h1a1.54,1.54,0,0,1,.67.13,2.25,2.25,0,0,1,.74.7,14.89,14.89,0,0,0,1.92,2.08,7.69,7.69,0,0,0,2.78,1.57,13.52,13.52,0,0,0,4.26.58,12.27,12.27,0,0,0,6.34-1.48,4.75,4.75,0,0,0,2.49-4.35,4.13,4.13,0,0,0-1-2.88,8.34,8.34,0,0,0-3.36-1.92,59.83,59.83,0,0,0-6.4-1.73,21,21,0,0,1-6.18-2.3,7.16,7.16,0,0,1-2.91-3.1,9.5,9.5,0,0,1-.77-3.81,8.52,8.52,0,0,1,1.28-4.39,9.87,9.87,0,0,1,3.81-3.52,13.32,13.32,0,0,1,6.37-1.37,15.28,15.28,0,0,1,5.34.83,12.38,12.38,0,0,1,3.62,2,9.24,9.24,0,0,1,2.08,2.33,5,5,0,0,1,.74,1.86,1.11,1.11,0,0,1-.39,1,1.52,1.52,0,0,1-1,.39h-1a1.41,1.41,0,0,1-.83-.23,2.13,2.13,0,0,1-.58-.61,11.09,11.09,0,0,0-1.54-1.92,6.5,6.5,0,0,0-2.4-1.44,12.32,12.32,0,0,0-4.06-.54q-3.84,0-5.7,1.57a5,5,0,0,0-1.85,4,4,4,0,0,0,.77,2.46,6.47,6.47,0,0,0,2.88,1.92,43.12,43.12,0,0,0,6.14,1.83,24.25,24.25,0,0,1,6.46,2.2,8.24,8.24,0,0,1,3.36,3.11,8.58,8.58,0,0,1,1,4.22,8.41,8.41,0,0,1-1.44,4.74,10,10,0,0,1-4.29,3.49A16.8,16.8,0,0,1,1195.79,230.64Z"/><path class="cls-10" d="M1229.32,230.64a15.37,15.37,0,0,1-7.61-1.76,11.48,11.48,0,0,1-4.77-5.09,19,19,0,0,1-1.76-7.87c0-.64-.06-1.49-.06-2.56s0-1.92.06-2.56a18.86,18.86,0,0,1,1.76-7.9,11.51,11.51,0,0,1,4.77-5.06,15.37,15.37,0,0,1,7.61-1.76,16.56,16.56,0,0,1,5.86.93,12.05,12.05,0,0,1,4.06,2.43,10.79,10.79,0,0,1,2.44,3.29,9.19,9.19,0,0,1,.89,3.52,1.13,1.13,0,0,1-.38,1,1.56,1.56,0,0,1-1,.38h-.89a1.24,1.24,0,0,1-.93-.29,3.55,3.55,0,0,1-.61-1.05,9.55,9.55,0,0,0-3.68-5.09,10.71,10.71,0,0,0-5.73-1.44,10.15,10.15,0,0,0-7.2,2.66c-1.89,1.77-2.91,4.66-3,8.67a41.84,41.84,0,0,0,0,4.48c.13,4,1.15,6.9,3,8.67a10.15,10.15,0,0,0,7.2,2.66,10.71,10.71,0,0,0,5.73-1.44,9.55,9.55,0,0,0,3.68-5.09,3.64,3.64,0,0,1,.61-1.06,1.28,1.28,0,0,1,.93-.29h.89a1.52,1.52,0,0,1,1,.39,1.12,1.12,0,0,1,.38,1,9.44,9.44,0,0,1-.57,2.82,10.37,10.37,0,0,1-1.57,2.75,11.12,11.12,0,0,1-2.59,2.37,13,13,0,0,1-3.68,1.63A17.55,17.55,0,0,1,1229.32,230.64Z"/><path class="cls-10" d="M1252.49,230a1.36,1.36,0,0,1-1-.39,1.35,1.35,0,0,1-.39-1V186a1.32,1.32,0,0,1,1.41-1.41h1.09A1.32,1.32,0,0,1,1255,186v15.16a14.08,14.08,0,0,1,4.19-3.64A15.38,15.38,0,0,1,1273,198a11.52,11.52,0,0,1,4.36,5.12,17.78,17.78,0,0,1,1.44,7.32v18.18a1.35,1.35,0,0,1-.39,1,1.36,1.36,0,0,1-1,.39h-1.09a1.34,1.34,0,0,1-1.41-1.41V210.73c0-3.41-.83-6.08-2.49-8s-4.1-2.91-7.3-2.91a9.69,9.69,0,0,0-7.33,2.91,11.18,11.18,0,0,0-2.78,8v17.86a1.34,1.34,0,0,1-1.41,1.41Z"/><path class="cls-10" d="M1297.8,230.64a12.67,12.67,0,0,1-5.66-1.28,11.35,11.35,0,0,1-4.19-3.43,7.81,7.81,0,0,1-1.6-4.83,8.26,8.26,0,0,1,3.52-7,19.5,19.5,0,0,1,9.15-3.4l10.11-1.4v-2.24a7,7,0,0,0-2.08-5.35c-1.39-1.3-3.59-2-6.62-2a9.9,9.9,0,0,0-5.38,1.31,6.78,6.78,0,0,0-2.81,3.43,1.23,1.23,0,0,1-1.22,1h-1a1.27,1.27,0,0,1-1.09-.42,1.55,1.55,0,0,1-.32-1,5.21,5.21,0,0,1,.67-2.24,9.58,9.58,0,0,1,2.08-2.66A11.71,11.71,0,0,1,1295,197a14.79,14.79,0,0,1,5.44-.89,16.48,16.48,0,0,1,6.24,1,9.43,9.43,0,0,1,5.79,6.27,14.2,14.2,0,0,1,.58,3.91v21.31a1.35,1.35,0,0,1-.39,1,1.36,1.36,0,0,1-1,.39h-1.09a1.34,1.34,0,0,1-1.41-1.41v-3a11,11,0,0,1-2.17,2.31,12.45,12.45,0,0,1-3.62,2A16.52,16.52,0,0,1,1297.8,230.64Zm.64-3.71a11.39,11.39,0,0,0,5.38-1.28,9.37,9.37,0,0,0,3.87-3.94,13.92,13.92,0,0,0,1.44-6.69v-2.17l-8.25,1.15a19.86,19.86,0,0,0-7.94,2.43,5.07,5.07,0,0,0-2.69,4.35,5,5,0,0,0,1.22,3.46,7.42,7.42,0,0,0,3.1,2A11.43,11.43,0,0,0,1298.44,226.93Z"/><path class="cls-10" d="M1327.37,230a1.34,1.34,0,0,1-1.41-1.41V200.43h-5.69a1.31,1.31,0,0,1-1.41-1.41v-.89a1.31,1.31,0,0,1,1.41-1.41H1326v-3.65a16.43,16.43,0,0,1,.8-5.25,7.3,7.3,0,0,1,2.88-3.77,10.65,10.65,0,0,1,6-1.41H1339a1.41,1.41,0,0,1,1,.38,1.38,1.38,0,0,1,.38,1v.89a1.38,1.38,0,0,1-.38,1,1.41,1.41,0,0,1-1,.38h-3.33q-3.39,0-4.58,1.82a9.61,9.61,0,0,0-1.18,5.22v3.33h8.45a1.41,1.41,0,0,1,1,.38,1.38,1.38,0,0,1,.38,1V199a1.38,1.38,0,0,1-.38,1,1.41,1.41,0,0,1-1,.38h-8.45v28.16a1.34,1.34,0,0,1-1.41,1.41Z"/><path class="cls-10" d="M1357.07,230a8.7,8.7,0,0,1-5.25-1.41,7.37,7.37,0,0,1-2.69-3.84,18.05,18.05,0,0,1-.77-5.44V200.43h-5A1.32,1.32,0,0,1,1342,199v-.89a1.32,1.32,0,0,1,1.41-1.41h5V186a1.32,1.32,0,0,1,1.41-1.41h1.09a1.32,1.32,0,0,1,1.41,1.41v10.75h7.93a1.31,1.31,0,0,1,1.41,1.41V199a1.31,1.31,0,0,1-1.41,1.41h-7.93v18.62a10.55,10.55,0,0,0,1.12,5.32c.74,1.28,2.08,1.92,4,1.92h3.45a1.38,1.38,0,0,1,1,.38,1.41,1.41,0,0,1,.38,1v.9a1.32,1.32,0,0,1-1.41,1.41Z"/><path class="cls-10" d="M1368.33,234.8a.79.79,0,0,1-.74-.39,1.53,1.53,0,0,1-.16-1l1.22-7.68a3,3,0,0,1,.48-1.24,1.29,1.29,0,0,1,1.12-.48h2.88a.82.82,0,0,1,.7.32,1.08,1.08,0,0,1,.26.7,2.82,2.82,0,0,1-.26,1.15l-2.75,7.23a2.89,2.89,0,0,1-.61,1,1.43,1.43,0,0,1-1,.35Z"/><path class="cls-10" d="M850.58,311.5a1.32,1.32,0,0,1-1.41-1.41V268.17a1.5,1.5,0,0,1,.38-1.09,1.42,1.42,0,0,1,1-.38h25a1.33,1.33,0,0,1,1.47,1.47v1a1.38,1.38,0,0,1-.38,1,1.47,1.47,0,0,1-1.09.39H853.2v16.32h20.93a1.33,1.33,0,0,1,1.47,1.47v1a1.38,1.38,0,0,1-.38,1,1.47,1.47,0,0,1-1.09.39H853.2v17h22.85a1.33,1.33,0,0,1,1.47,1.47v1a1.38,1.38,0,0,1-.38,1,1.47,1.47,0,0,1-1.09.39Z"/><path class="cls-10" d="M886.93,271.37a1.32,1.32,0,0,1-1.41-1.41v-2.43a1.49,1.49,0,0,1,.39-1.06,1.33,1.33,0,0,1,1-.41h2.43a1.41,1.41,0,0,1,1.47,1.47V270a1.36,1.36,0,0,1-.41,1,1.53,1.53,0,0,1-1.06.38Zm.7,40.13a1.38,1.38,0,0,1-1-.39,1.34,1.34,0,0,1-.38-1V279.63a1.38,1.38,0,0,1,.38-1,1.41,1.41,0,0,1,1-.38h1.09a1.31,1.31,0,0,1,1.41,1.41v30.46a1.32,1.32,0,0,1-1.41,1.41Z"/><path class="cls-10" d="M901.9,311.5a1.38,1.38,0,0,1-1-.39,1.34,1.34,0,0,1-.38-1V279.63a1.38,1.38,0,0,1,.38-1,1.41,1.41,0,0,1,1-.38H903a1.31,1.31,0,0,1,1.41,1.41v3a14.08,14.08,0,0,1,4.19-3.64,15.4,15.4,0,0,1,13.83.48,11.57,11.57,0,0,1,4.35,5.12,17.78,17.78,0,0,1,1.44,7.32v18.18a1.34,1.34,0,0,1-1.41,1.41h-1.09a1.36,1.36,0,0,1-1-.39,1.35,1.35,0,0,1-.39-1V292.23c0-3.41-.83-6.08-2.49-8s-4.1-2.91-7.3-2.91a9.69,9.69,0,0,0-7.33,2.91,11.18,11.18,0,0,0-2.78,8v17.86A1.32,1.32,0,0,1,903,311.5Z"/><path class="cls-10" d="M939.73,311.5a1.32,1.32,0,0,1-1.41-1.41V267.47a1.31,1.31,0,0,1,1.41-1.41h1.09a1.41,1.41,0,0,1,1,.38,1.38,1.38,0,0,1,.38,1v22.65l14.28-10.81a7.7,7.7,0,0,1,1.31-.9,3.49,3.49,0,0,1,1.37-.19h1.22a1.29,1.29,0,0,1,.93.35,1.28,1.28,0,0,1,.35.93,1.49,1.49,0,0,1-.16.61,1.7,1.7,0,0,1-.67.67l-16.19,12.29,17.79,15.87c.55.51.83.94.83,1.28A1.2,1.2,0,0,1,962,311.5h-1a4.15,4.15,0,0,1-1.38-.16,5.81,5.81,0,0,1-1.31-.93l-16.07-14.27v13.95a1.34,1.34,0,0,1-.38,1,1.38,1.38,0,0,1-1,.39Z"/><path class="cls-10" d="M977.74,312.14a12.67,12.67,0,0,1-5.66-1.28,11.35,11.35,0,0,1-4.19-3.43,7.81,7.81,0,0,1-1.6-4.83,8.26,8.26,0,0,1,3.52-7,19.58,19.58,0,0,1,9.15-3.4l10.11-1.4v-2.24a7,7,0,0,0-2.08-5.35q-2.07-2-6.62-1.95A9.9,9.9,0,0,0,975,282.6a6.78,6.78,0,0,0-2.81,3.43,1.23,1.23,0,0,1-1.22,1h-1a1.29,1.29,0,0,1-1.09-.42,1.61,1.61,0,0,1-.32-1,5.21,5.21,0,0,1,.67-2.24,9.58,9.58,0,0,1,2.08-2.66,11.71,11.71,0,0,1,3.65-2.21,14.79,14.79,0,0,1,5.44-.89,16.41,16.41,0,0,1,6.24,1,10,10,0,0,1,3.84,2.66,9.71,9.71,0,0,1,1.95,3.61,14.2,14.2,0,0,1,.58,3.91v21.31a1.35,1.35,0,0,1-.39,1,1.36,1.36,0,0,1-1,.39h-1.09a1.34,1.34,0,0,1-1.41-1.41v-3a11,11,0,0,1-2.17,2.31,12.45,12.45,0,0,1-3.62,1.95A16.52,16.52,0,0,1,977.74,312.14Zm.65-3.71a11.38,11.38,0,0,0,5.37-1.28,9.37,9.37,0,0,0,3.87-3.94,13.92,13.92,0,0,0,1.44-6.69v-2.17l-8.25,1.15a19.86,19.86,0,0,0-7.94,2.43,5.07,5.07,0,0,0-2.69,4.35,5,5,0,0,0,1.22,3.46,7.42,7.42,0,0,0,3.1,2A11.44,11.44,0,0,0,978.39,308.43Z"/><path class="cls-10" d="M1015.57,312.14a12.77,12.77,0,0,1-7.2-1.89,11.34,11.34,0,0,1-4.23-5.15,18.77,18.77,0,0,1-1.37-7.3V279.63a1.31,1.31,0,0,1,1.41-1.41h1.08a1.31,1.31,0,0,1,1.41,1.41v17.85q0,10.95,9.54,10.95a9.52,9.52,0,0,0,7.29-2.92c1.84-1.94,2.76-4.61,2.76-8V279.63a1.38,1.38,0,0,1,.38-1,1.41,1.41,0,0,1,1-.38h1.09a1.31,1.31,0,0,1,1.41,1.41v30.46a1.32,1.32,0,0,1-1.41,1.41h-1.09a1.38,1.38,0,0,1-1-.39,1.34,1.34,0,0,1-.38-1v-3a14.38,14.38,0,0,1-4.13,3.65A13,13,0,0,1,1015.57,312.14Z"/><path class="cls-10" d="M1045.07,311.5a1.34,1.34,0,0,1-1.41-1.41V281.93H1038a1.31,1.31,0,0,1-1.41-1.41v-.89a1.31,1.31,0,0,1,1.41-1.41h5.69v-3.65a16.43,16.43,0,0,1,.8-5.25,7.3,7.3,0,0,1,2.88-3.77,10.65,10.65,0,0,1,6-1.41h3.33a1.41,1.41,0,0,1,1,.38,1.38,1.38,0,0,1,.38,1v.89a1.38,1.38,0,0,1-.38,1,1.41,1.41,0,0,1-1,.38h-3.33q-3.39,0-4.58,1.82a9.61,9.61,0,0,0-1.18,5.22v3.33H1056a1.41,1.41,0,0,1,1,.38,1.38,1.38,0,0,1,.38,1v.89a1.38,1.38,0,0,1-.38,1,1.41,1.41,0,0,1-1,.38h-8.45v28.16a1.34,1.34,0,0,1-1.41,1.41Z"/><path class="cls-10" d="M1091.09,312.14a12.75,12.75,0,0,1-7.2-1.89,11.34,11.34,0,0,1-4.23-5.15,18.59,18.59,0,0,1-1.37-7.3V279.63a1.31,1.31,0,0,1,1.41-1.41h1.08a1.31,1.31,0,0,1,1.41,1.41v17.85q0,10.95,9.54,10.95a9.52,9.52,0,0,0,7.29-2.92c1.84-1.94,2.76-4.61,2.76-8V279.63a1.38,1.38,0,0,1,.38-1,1.41,1.41,0,0,1,1-.38h1.09a1.31,1.31,0,0,1,1.41,1.41v30.46a1.32,1.32,0,0,1-1.41,1.41h-1.09a1.38,1.38,0,0,1-1-.39,1.34,1.34,0,0,1-.38-1v-3a14.38,14.38,0,0,1-4.13,3.65A13,13,0,0,1,1091.09,312.14Z"/><path class="cls-10" d="M1117.45,311.5a1.38,1.38,0,0,1-1-.39,1.34,1.34,0,0,1-.38-1V279.63a1.38,1.38,0,0,1,.38-1,1.41,1.41,0,0,1,1-.38h1.09a1.31,1.31,0,0,1,1.41,1.41v3a14.08,14.08,0,0,1,4.19-3.64,15.4,15.4,0,0,1,13.83.48,11.57,11.57,0,0,1,4.35,5.12,17.78,17.78,0,0,1,1.44,7.32v18.18a1.34,1.34,0,0,1-1.41,1.41h-1.09a1.36,1.36,0,0,1-1-.39,1.35,1.35,0,0,1-.39-1V292.23c0-3.41-.83-6.08-2.49-8s-4.1-2.91-7.3-2.91a9.69,9.69,0,0,0-7.33,2.91,11.18,11.18,0,0,0-2.78,8v17.86a1.32,1.32,0,0,1-1.41,1.41Z"/><path class="cls-10" d="M1165.84,312.14a13.53,13.53,0,0,1-6.31-1.35,11.69,11.69,0,0,1-4.19-3.58,15.43,15.43,0,0,1-2.33-5,26.47,26.47,0,0,1-.87-5.57c0-.64-.06-1.24-.06-1.79s0-1.15.06-1.79a26.37,26.37,0,0,1,.87-5.57,15.34,15.34,0,0,1,2.33-5,11.71,11.71,0,0,1,4.19-3.59,13.65,13.65,0,0,1,6.31-1.34,13.19,13.19,0,0,1,6.56,1.47,13.66,13.66,0,0,1,4.19,3.58V267.47a1.31,1.31,0,0,1,1.41-1.41h1.09a1.41,1.41,0,0,1,1,.38,1.38,1.38,0,0,1,.38,1v42.62a1.34,1.34,0,0,1-.38,1,1.38,1.38,0,0,1-1,.39H1178a1.32,1.32,0,0,1-1.41-1.41v-3a12.88,12.88,0,0,1-4.19,3.62A13.41,13.41,0,0,1,1165.84,312.14Zm.38-3.71a9.39,9.39,0,0,0,5.89-1.73,10.55,10.55,0,0,0,3.33-4.32,14.37,14.37,0,0,0,1.15-5.22q.06-1,.06-2.49c0-1,0-1.86-.06-2.5a13.15,13.15,0,0,0-1.18-5.06,10.52,10.52,0,0,0-3.36-4.16,11.23,11.23,0,0,0-11.75,0,9.19,9.19,0,0,0-3.17,4.36,19.24,19.24,0,0,0-1.08,5.76c0,1.19,0,2.39,0,3.58a19.24,19.24,0,0,0,1.08,5.76,9.21,9.21,0,0,0,3.17,4.35A9.61,9.61,0,0,0,1166.22,308.43Z"/><path class="cls-10" d="M1209.68,311.5a1.32,1.32,0,0,1-1.41-1.41v-42a1.31,1.31,0,0,1,1.41-1.41h1.21a1.31,1.31,0,0,1,1.41,1.41v39.55h22.08a1.5,1.5,0,0,1,1.09.38,1.46,1.46,0,0,1,.38,1.09v1a1.34,1.34,0,0,1-.38,1,1.47,1.47,0,0,1-1.09.39Z"/><path class="cls-10" d="M1254.35,312.14a14.41,14.41,0,0,1-7.71-1.92,12.54,12.54,0,0,1-4.74-5.25,18,18,0,0,1-1.76-7.42c0-.64-.06-1.54-.06-2.69s0-2.05.06-2.69a17.93,17.93,0,0,1,1.76-7.46,12.62,12.62,0,0,1,4.74-5.21,16.44,16.44,0,0,1,15.42,0,12.62,12.62,0,0,1,4.74,5.21,17.93,17.93,0,0,1,1.76,7.46c0,.64.06,1.54.06,2.69s0,2.05-.06,2.69a18,18,0,0,1-1.76,7.42,12.54,12.54,0,0,1-4.74,5.25A14.41,14.41,0,0,1,1254.35,312.14Zm0-3.71a9.76,9.76,0,0,0,7.3-2.88c1.87-1.92,2.88-4.7,3-8.32,0-.64.07-1.43.07-2.37s0-1.73-.07-2.37c-.12-3.67-1.13-6.45-3-8.35a10.77,10.77,0,0,0-14.6,0c-1.87,1.9-2.88,4.68-3,8.35,0,.64-.07,1.43-.07,2.37s0,1.73.07,2.37c.12,3.62,1.13,6.4,3,8.32A9.76,9.76,0,0,0,1254.35,308.43Z"/><path class="cls-10" d="M1289.81,325.58a17.35,17.35,0,0,1-6.69-1.09,11.32,11.32,0,0,1-4-2.66,9.55,9.55,0,0,1-2-3.13,9.77,9.77,0,0,1-.64-2.53,1.21,1.21,0,0,1,.38-1.06,1.49,1.49,0,0,1,1-.41h.89a1.77,1.77,0,0,1,.9.22,1.83,1.83,0,0,1,.64,1.12,14,14,0,0,0,1.25,2.4,7.08,7.08,0,0,0,2.75,2.4,11.08,11.08,0,0,0,5.22,1,16.68,16.68,0,0,0,5.88-.9,6.73,6.73,0,0,0,3.62-3.17,13.2,13.2,0,0,0,1.25-6.3v-4.42a13,13,0,0,1-4.19,3.62,15.54,15.54,0,0,1-12.87.09,11.6,11.6,0,0,1-4.19-3.58,15.73,15.73,0,0,1-2.37-5,22.54,22.54,0,0,1-.83-5.57c0-1.19,0-2.39,0-3.58a22.47,22.47,0,0,1,.83-5.57,15.63,15.63,0,0,1,2.37-5,11.63,11.63,0,0,1,4.19-3.59,13.65,13.65,0,0,1,6.31-1.34,13.19,13.19,0,0,1,6.56,1.47,13.78,13.78,0,0,1,4.19,3.58v-2.94a1.53,1.53,0,0,1,.38-1.06,1.36,1.36,0,0,1,1-.41h1a1.41,1.41,0,0,1,1.47,1.47v31.17a21.51,21.51,0,0,1-1.21,7.42,10.5,10.5,0,0,1-4.32,5.31C1296.54,324.92,1293.6,325.58,1289.81,325.58Zm.06-17.15a9.41,9.41,0,0,0,5.89-1.73,10.21,10.21,0,0,0,3.29-4.32,15.8,15.8,0,0,0,1.19-5.22c0-.64.06-1.41.06-2.3s0-1.67-.06-2.31a15.8,15.8,0,0,0-1.19-5.21,10.21,10.21,0,0,0-3.29-4.32,9.41,9.41,0,0,0-5.89-1.73A9.65,9.65,0,0,0,1284,283a9.19,9.19,0,0,0-3.17,4.36,19.56,19.56,0,0,0-1.09,5.76c0,1.19,0,2.39,0,3.58a19.56,19.56,0,0,0,1.09,5.76,9.21,9.21,0,0,0,3.17,4.35A9.59,9.59,0,0,0,1289.87,308.43Z"/><path class="cls-10" d="M1315.28,271.37a1.31,1.31,0,0,1-1.41-1.41v-2.43a1.53,1.53,0,0,1,.38-1.06,1.36,1.36,0,0,1,1-.41h2.43a1.42,1.42,0,0,1,1.47,1.47V270a1.33,1.33,0,0,1-.42,1,1.49,1.49,0,0,1-1,.38Zm.7,40.13a1.34,1.34,0,0,1-1.41-1.41V279.63a1.32,1.32,0,0,1,1.41-1.41h1.09a1.32,1.32,0,0,1,1.41,1.41v30.46a1.35,1.35,0,0,1-.39,1,1.36,1.36,0,0,1-1,.39Z"/><path class="cls-10" d="M1339.4,312.14a16.31,16.31,0,0,1-5.72-.9,13.77,13.77,0,0,1-3.94-2.14,9.79,9.79,0,0,1-2.27-2.47,5,5,0,0,1-.8-1.85,1.07,1.07,0,0,1,.45-1.06,1.75,1.75,0,0,1,1-.35h1a1.57,1.57,0,0,1,.67.13,2.24,2.24,0,0,1,.73.7,16.21,16.21,0,0,0,1.92,2.08,7.83,7.83,0,0,0,2.79,1.57,13.5,13.5,0,0,0,4.25.58,12.24,12.24,0,0,0,6.34-1.48,4.76,4.76,0,0,0,2.5-4.35,4.09,4.09,0,0,0-1-2.88,8.34,8.34,0,0,0-3.36-1.92,59.17,59.17,0,0,0-6.4-1.73,21.06,21.06,0,0,1-6.17-2.3,7.16,7.16,0,0,1-2.91-3.1,9.34,9.34,0,0,1-.77-3.81,8.42,8.42,0,0,1,1.28-4.39,9.73,9.73,0,0,1,3.81-3.52,13.25,13.25,0,0,1,6.36-1.37,15.34,15.34,0,0,1,5.35.83,12.32,12.32,0,0,1,3.61,2,9,9,0,0,1,2.08,2.33,4.87,4.87,0,0,1,.74,1.86,1.13,1.13,0,0,1-.38,1,1.52,1.52,0,0,1-1,.39h-1a1.41,1.41,0,0,1-.83-.23,2.27,2.27,0,0,1-.58-.61,10.57,10.57,0,0,0-1.53-1.92,6.67,6.67,0,0,0-2.4-1.44,12.39,12.39,0,0,0-4.07-.54c-2.56,0-4.45.52-5.69,1.57a5,5,0,0,0-1.86,4,4.07,4.07,0,0,0,.77,2.46,6.47,6.47,0,0,0,2.88,1.92,44,44,0,0,0,6.14,1.83,24.33,24.33,0,0,1,6.47,2.2,8.24,8.24,0,0,1,3.36,3.11,8.58,8.58,0,0,1,1,4.22,8.41,8.41,0,0,1-1.44,4.74,10,10,0,0,1-4.29,3.49A16.77,16.77,0,0,1,1339.4,312.14Z"/><path class="cls-10" d="M1371.53,311.5a8.7,8.7,0,0,1-5.25-1.41,7.35,7.35,0,0,1-2.68-3.84,17.74,17.74,0,0,1-.77-5.44V281.93h-5a1.31,1.31,0,0,1-1.41-1.41v-.89a1.31,1.31,0,0,1,1.41-1.41h5V267.47a1.31,1.31,0,0,1,1.41-1.41h1.08a1.31,1.31,0,0,1,1.41,1.41v10.75h7.94a1.32,1.32,0,0,1,1.41,1.41v.89a1.32,1.32,0,0,1-1.41,1.41h-7.94v18.62a10.55,10.55,0,0,0,1.12,5.32,4.24,4.24,0,0,0,4,1.92h3.46a1.36,1.36,0,0,1,1,.38,1.38,1.38,0,0,1,.39,1v.9a1.35,1.35,0,0,1-.39,1,1.36,1.36,0,0,1-1,.39Z"/><path class="cls-10" d="M1384,271.37a1.32,1.32,0,0,1-1.41-1.41v-2.43a1.49,1.49,0,0,1,.39-1.06,1.33,1.33,0,0,1,1-.41h2.43a1.46,1.46,0,0,1,1.06.41,1.43,1.43,0,0,1,.42,1.06V270a1.33,1.33,0,0,1-.42,1,1.53,1.53,0,0,1-1.06.38Zm.71,40.13a1.32,1.32,0,0,1-1.41-1.41V279.63a1.31,1.31,0,0,1,1.41-1.41h1.08a1.31,1.31,0,0,1,1.41,1.41v30.46a1.32,1.32,0,0,1-1.41,1.41Z"/><path class="cls-10" d="M1399.05,311.5a1.34,1.34,0,0,1-1.41-1.41V267.47a1.32,1.32,0,0,1,1.41-1.41h1.09a1.32,1.32,0,0,1,1.41,1.41v22.65l14.27-10.81a8.13,8.13,0,0,1,1.31-.9,3.55,3.55,0,0,1,1.38-.19h1.21a1.26,1.26,0,0,1,.93.35,1.24,1.24,0,0,1,.35.93,1.49,1.49,0,0,1-.16.61,1.64,1.64,0,0,1-.67.67L1404,293.07l17.79,15.87c.55.51.83.94.83,1.28a1.29,1.29,0,0,1-.35.93,1.26,1.26,0,0,1-.93.35h-1a4.15,4.15,0,0,1-1.38-.16,5.81,5.81,0,0,1-1.31-.93l-16.06-14.27v13.95a1.35,1.35,0,0,1-.39,1,1.36,1.36,0,0,1-1,.39Z"/></g></g></svg>