<?xml version="1.0" encoding="UTF-8" standalone="no"?>
<!-- Created with Inkscape (http://www.inkscape.org/) -->

<svg
   xmlns:dc="http://purl.org/dc/elements/1.1/"
   xmlns:cc="http://creativecommons.org/ns#"
   xmlns:rdf="http://www.w3.org/1999/02/22-rdf-syntax-ns#"
   xmlns:svg="http://www.w3.org/2000/svg"
   xmlns="http://www.w3.org/2000/svg"
   version="1.1"
   width="1024"
   height="372"
   id="svg4492">
  <defs
     id="defs4494">
    <clipPath
       id="clipPath3013">
      <path
         d="m 0,0 606.614,0 0,793.701 L 0,793.701 0,0 z"
         id="path3015" />
    </clipPath>
  </defs>
  <metadata
     id="metadata4497">
    <rdf:RDF>
      <cc:Work
         rdf:about="">
        <dc:format>image/svg+xml</dc:format>
        <dc:type
           rdf:resource="http://purl.org/dc/dcmitype/StillImage" />
        <dc:title></dc:title>
      </cc:Work>
    </rdf:RDF>
  </metadata>
  <g
     transform="translate(0,-396)"
     id="layer1">
    <g
       transform="matrix(9.5230102,0,0,-9.5230102,-4612.7387,7666.6644)"
       id="g4437">
      <path
         d="m 575.992,758.113 15.314,0 0,4.973 -15.314,0 0,-4.973 z"
         id="path2997"
         style="fill:#282723;fill-opacity:1;fill-rule:nonzero;stroke:none" />
      <path
         d="m 510.201,735.638 5.606,0 0,17.767 -5.606,0 0,-17.767 z"
         id="path2999"
         style="fill:#282723;fill-opacity:1;fill-rule:nonzero;stroke:none" />
      <g
         transform="translate(570.521,741.2197)"
         id="g3001">
        <path
           d="m 0,0 0,12.184 5.472,0 0,-17.766 -7.889,0 -9.704,12.183 0,-12.183 -5.471,0 0,17.766 7.888,0 L 0,0 z"
           id="path3003"
           style="fill:#282723;fill-opacity:1;fill-rule:nonzero;stroke:none" />
      </g>
      <g
         transform="translate(490.5065,746.8763)"
         id="g3005">
        <path
           d="m 0,0 1.071,0 7.047,6.527 7.569,0 -9.454,-8.182 10.9,-9.583 -8.577,0 -7.429,6.821 -1.127,0 0,-6.821 -5.527,0 0,17.765 L 0,6.527 0,0 z"
           id="path3007"
           style="fill:#282723;fill-opacity:1;fill-rule:nonzero;stroke:none" />
      </g>
      <g
         id="g3009">
        <g
           clip-path="url(#clipPath3013)"
           id="g3011">
          <g
             transform="translate(522.0936,742.1084)"
             id="g3017">
            <path
               d="m 0,0 0,4.826 c 0,5.202 2.92,6.824 7.827,6.824 l 8.895,0 c 4.908,0 7.828,-1.622 7.828,-6.824 L 24.55,0 c 0,-5.203 -2.92,-6.825 -7.828,-6.825 l -8.895,0 C 2.92,-6.825 0,-5.203 0,0 m 5.595,3.845 0,-2.864 c 0,-2.577 0.54,-3.322 3.116,-3.322 l 7.127,0 c 2.577,0 3.117,0.745 3.117,3.322 l 0,2.864 c 0,2.208 -0.54,3.321 -3.411,3.321 l -6.539,0 c -2.87,0 -3.41,-1.113 -3.41,-3.321"
               id="path3019"
               style="fill:#282723;fill-opacity:1;fill-rule:nonzero;stroke:none" />
          </g>
          <g
             transform="translate(555.05009,726.83749)"
             id="g3021">
            <path
               d="m 0,0 c 0,-1.277 0.66,-1.967 2.109,-1.967 l 2.301,0 c 1.447,0 2.107,0.69 2.107,1.967 l 0,3.229 -1.555,0 0,-3.047 c 0,-0.653 -0.235,-0.869 -0.881,-0.869 l -1.562,0 c -0.645,0 -0.88,0.216 -0.88,0.869 l 0,3.047 L 0,3.229 0,0 z"
               id="path3023"
               style="fill:#c2005d;fill-opacity:1;fill-rule:nonzero;stroke:none" />
          </g>
          <g
             transform="translate(510.12241,726.7896)"
             id="g3025">
            <path
               d="m 0,0 c 0,-1.505 0.845,-1.938 2.265,-1.938 l 1.816,0 c 1.775,0 2.542,0.182 2.542,1.626 l 0,1.534 -3.377,0 0,-1.065 1.8,0 0,-0.379 c 0,-0.497 -0.411,-0.522 -0.823,-0.522 l -1.604,0 c -0.795,0 -1,0.152 -1,1.033 l 0,0.837 c 0,0.88 0.205,1.032 1,1.032 l 3.706,0 0,1.195 -4.06,0 C 0.845,3.353 0,2.92 0,1.415 L 0,0 z"
               id="path3027"
               style="fill:#c2005d;fill-opacity:1;fill-rule:nonzero;stroke:none" />
          </g>
          <g
             transform="translate(539.649,726.7925)"
             id="g3029">
            <path
               d="m 0,0 0,1.408 c 0,1.505 0.845,1.975 2.265,1.975 l 2.567,0 c 1.42,0 2.265,-0.47 2.265,-1.975 L 7.097,0 c 0,-1.505 -0.845,-1.974 -2.265,-1.974 l -2.567,0 C 0.845,-1.974 0,-1.505 0,0 m 1.619,1.124 0,-0.84 c 0,-0.745 0.156,-0.961 0.901,-0.961 l 2.056,0 c 0.746,0 0.902,0.216 0.902,0.961 l 0,0.84 c 0,0.639 -0.156,0.961 -0.986,0.961 l -1.886,0 C 1.775,2.085 1.619,1.763 1.619,1.124"
               id="path3031"
               style="fill:#c2005d;fill-opacity:1;fill-rule:nonzero;stroke:none" />
          </g>
          <g
             transform="translate(569.9922,724.9274)"
             id="g3033">
            <path
               d="m 0,0 0,5.14 4.296,0 c 1.497,0 1.86,-0.832 1.86,-1.84 l 0,-0.282 C 6.156,2.251 5.822,1.292 4.707,1.292 l -3.131,0 L 1.576,0 0,0 z m 1.576,3.941 0,-1.45 2.45,0 c 0.369,0 0.511,0.201 0.511,0.506 l 0,0.437 c 0,0.348 -0.171,0.507 -0.646,0.507 l -2.315,0 z"
               id="path3035"
               style="fill:#c2005d;fill-opacity:1;fill-rule:nonzero;stroke:none" />
          </g>
          <g
             transform="translate(529.7581,724.9274)"
             id="g3037">
            <path
               d="m 0,0 -1.02,1.532 -2.009,0 0,-1.532 -1.576,0 0,5.14 4.835,0 c 1.214,0 1.541,-0.752 1.541,-1.735 0,-0.763 -0.23,-1.484 -1.028,-1.694 L 2.051,0 0,0 z m -3.029,3.941 0,-1.21 2.684,0 c 0.426,0 0.582,0.131 0.582,0.499 l 0,0.211 c 0,0.454 -0.226,0.5 -0.724,0.5 l -2.542,0 z"
               id="path3039"
               style="fill:#c2005d;fill-opacity:1;fill-rule:nonzero;stroke:none" />
          </g>
        </g>
      </g>
    </g>
  </g>
</svg>
