<?xml version="1.0" encoding="utf-8"?>
<!-- Generator: Adobe Illustrator 23.0.2, SVG Export Plug-In . SVG Version: 6.00 Build 0)  -->
<svg version="1.1" id="svg3544" xmlns:svg="http://www.w3.org/2000/svg"
	 xmlns="http://www.w3.org/2000/svg" xmlns:xlink="http://www.w3.org/1999/xlink" x="0px" y="0px"
	 viewBox="0 0 75.9999695 75.9990005" style="enable-background:new 0 0 75.9999695 75.9990005;" xml:space="preserve">
<style type="text/css">
	.st0{fill-rule:evenodd;clip-rule:evenodd;}
</style>
<g id="layer1">
	<path id="path3524" class="st0" d="M55.6359711,4.3080001c12.098999,6.3629994,20.3639984,19.0489998,20.3639984,33.6720009
		s-8.2649994,27.3490028-20.3639984,33.6730003v-4.3479996c4.6269989-2.7679977,8.5410004-6.6409988,11.3889999-11.2249985
		l-11.3889999-4.6230011v-7.0349998l12.4949951,9.762001c2.6100006-4.8220024,4.0730057-10.3160019,4.0730057-16.2050018
		c0-12.4099998-6.6440048-23.3169994-16.5680008-29.3250008V4.3080001L55.6359711,4.3080001z M38.0400009,0
		c6.3269997,0,12.2969704,1.5420001,17.5959702,4.3080001v4.348c-4.8640022-2.9260001-10.557972-4.664-16.5679703-4.862
		l4.348999,31.1039982l12.2189713,9.5250015v7.0349998l-17.675972-7.1539993l-17.5569992,7.1930008v-6.9960022l12.2980003-9.6040001
		l4.3100014-31.1040001C30.9210014,3.9910002,25.2670002,5.73,20.4029999,8.6539993V4.3080001
		C25.6630001,1.5420001,31.6730003,0,38.0400009,0L38.0400009,0L38.0400009,0z M55.6359711,71.6529999
		c-5.2989998,2.7659988-11.2699699,4.3460007-17.5959702,4.3460007c-6.3660011,0-12.3760014-1.5800018-17.6360016-4.3069992
		v-4.387001c5.1410007,3.1210022,11.1900024,4.9000015,17.6360016,4.9000015c6.4059982,0,12.4169693-1.7789993,17.5959702-4.9000015
		V71.6529999L55.6359711,71.6529999z M20.4039993,71.6920013C8.2639999,65.3290024,0,52.6030006,0,37.9799995
		s8.2639999-27.309,20.4039993-33.6720009v4.3479996C10.4390001,14.6630001,3.796,25.5310001,3.796,37.9799995
		c0,5.8880005,1.5029998,11.4620018,4.1130004,16.2830009l12.4949989-9.762001v6.9960022l-11.348999,4.6619987
		c2.8470001,4.5470009,6.7220001,8.3790016,11.348999,11.1459999V71.6920013L20.4039993,71.6920013z"/>
</g>
</svg>
